<svg xmlns="http://www.w3.org/2000/svg" width="108" height="112" viewBox="0 0 108 112" fill="none"><path d="M47.6411 82.7831C64.9931 86.5639 74.3267 82.469 78.4725 78.195M78.4725 78.195C79.71 76.9192 80.4853 75.6275 80.8736 74.5245C79.6547 72.976 70.2238 73.3201 64.8989 73.3201C57.0078 73.3201 53.4151 70.2231 39.365 68.5599C28.125 67.2294 21.1448 74.4289 19.4768 78.195L33.3985 95.9739C34.4892 94.5019 39.3778 91.8332 50.2073 92.9343C63.7441 94.3107 75.3563 92.4181 90.6253 82.7831L106.6 71.5996C105.488 69.9746 102.173 67.0917 97.8107 68.5599C93.4481 70.0281 83.1009 75.595 78.4725 78.195ZM75.0355 17.5172L81.7077 1.1147L51.5546 1L57.5852 18.3201M75.0355 17.5172C80.5315 19.601 91.5234 26.4411 91.5234 37.1314C91.5234 50.4943 81.7718 58.7529 68.0425 60.1293C59.7451 60.0719 43.1502 55.3921 43.1502 37.1314C43.0005 33.0212 45.6779 23.5047 57.5852 18.3201M75.0355 17.5172L57.5852 18.3201M1 85.4213L14.216 78.195L32.1796 101.365L20.5033 111L1 85.4213Z" stroke="#B7746D" stroke-width="1.5" stroke-linecap="round" stroke-linejoin="round"></path><path d="M73.3942 32.4469C72.5949 30.4396 69.6807 27.1821 64.4178 30.2102C62.0815 31.9881 60.7903 36.863 68.2912 38.0674C70.9349 38.6983 74.2673 39.3062 74.0705 42.8849C73.8246 47.3583 65.0326 49.3656 62.8193 42.5981M68.2912 27.4V50.2832" stroke="#B7746D" stroke-width="0.8" stroke-linecap="round"></path><circle cx="21.8996" cy="101.1" r="3.05" stroke="#B7746D" stroke-width="0.5"></circle></svg>