<svg xmlns="http://www.w3.org/2000/svg" width="127" height="111" viewBox="0 0 127 111" fill="none"><path d="M69.7924 103.003H75.1443C75.4407 99.0272 75.8141 92.0263 75.7403 86.4435M53.6059 103.003H24.888M6.02563 103.003H1V89.277M1 81.6582V79.3285C1.67443 77.6704 3.924 74.3543 7.52679 74.3543L13.2051 55.7796C15.2502 48.7905 23.7524 34.3841 41.4008 32.6714C63.4614 30.5306 72.7294 57.3537 69.7924 65.854C67.4427 72.6542 66.5072 75.2358 66.3332 75.6765C68.8133 75.1308 74.0478 75.0972 75.1443 79.3285C75.5294 80.8146 75.7004 83.4213 75.7403 86.4435M1 81.6582H7.52679C9.04971 82.2669 11.7431 84.0761 10.3333 86.4435C8.57108 89.4029 8.70161 89.7807 1 89.277M1 81.6582V89.277M32.3286 93.9364H41.4008M68.2259 86.4435H75.7403M20.4498 85.625H42.3146C46.9486 83.3373 56.7649 77.1751 58.9579 70.8282C61.6991 62.8946 62.6782 44.6977 43.2936 40.8569C36.9626 39.6024 26.2456 44.6222 20.4498 58.4241C14.654 72.226 18.0349 82.3088 20.4498 85.625ZM115.023 9.12249H122.92C125.14 9.12249 127.881 1.81855 122.92 1H113.13C112.173 1.44076 109.906 2.54894 108.496 5.47052C107.086 8.39209 102.948 20.2043 101.056 25.7453H60.5243C58.588 26.7737 55.8772 29.5987 60.5243 32.6714H101.969C103.057 32.8393 105.677 32.1803 107.452 28.2009L115.023 9.12249Z" stroke="#B7746D" stroke-width="1.5" stroke-linecap="round"></path><path d="M65.2872 32.7343L68.1764 37.6455M83.5622 72.0244L75.1426 77.1246M83.5622 72.0244H92.9934M83.5622 72.0244L80.068 64.2168L75.1426 53.2113L69.8953 41.4864L68.1764 37.6455M102.425 72.0244V32.7343M102.425 72.0244H92.9934M102.425 72.0244V87.9546M61.3711 40.479L68.1764 37.6455M76.3174 93.5585H86.8256M92.9934 72.0244V87.9546M75.1426 103.003H86.8256" stroke="#B7746D" stroke-width="1.5" stroke-linecap="round"></path><path d="M109.379 98.9737C109.379 105.176 104.159 110.25 97.663 110.25C91.1667 110.25 85.9468 105.176 85.9468 98.9737C85.9468 92.7711 91.1667 87.6974 97.663 87.6974C104.159 87.6974 109.379 92.7711 109.379 98.9737ZM24.4003 101.87C24.4003 106.473 20.5246 110.25 15.6865 110.25C10.8484 110.25 6.97266 106.473 6.97266 101.87C6.97266 97.2672 10.8484 93.4902 15.6865 93.4902C20.5246 93.4902 24.4003 97.2672 24.4003 101.87ZM69.0436 101.933C69.0436 105.945 65.6647 109.243 61.4393 109.243C57.2139 109.243 53.835 105.945 53.835 101.933C53.835 97.9213 57.2139 94.6235 61.4393 94.6235C65.6647 94.6235 69.0436 97.9213 69.0436 101.933Z" stroke="#B7746D" stroke-width="1.5"></path><path d="M102.698 98.9736C102.698 101.644 100.452 103.824 97.6617 103.824C94.8715 103.824 92.625 101.644 92.625 98.9736C92.625 96.3033 94.8715 94.1234 97.6617 94.1234C100.452 94.1234 102.698 96.3033 102.698 98.9736Z" stroke="#B7746D" stroke-width="0.5"></path></svg>