<svg xmlns="http://www.w3.org/2000/svg" width="167" height="112" viewBox="0 0 167 112" fill="none"><path d="M82.1175 0.253528C81.7053 0.213396 81.3385 0.51507 81.2984 0.927335C81.2583 1.3396 81.5599 1.70634 81.9722 1.74647L82.1175 0.253528ZM165.175 64.2175L164.553 64.6364L166.036 66.8393L165.925 64.1859L165.175 64.2175ZM128.48 53.174L128.643 53.9059L128.657 53.9029L128.67 53.8995L128.48 53.174ZM106.393 85.6088V86.3588H107.066L107.138 85.6894L106.393 85.6088ZM59.4361 85.6088L58.6885 85.6686L58.7437 86.3588H59.4361V85.6088ZM36.2187 53.174L36.0305 53.9L36.2187 53.174ZM2.39258 64.2175H1.64258V66.9096L3.03454 64.6053L2.39258 64.2175ZM2.39258 49.6088L1.64633 49.5338L1.64258 49.5712V49.6088H2.39258ZM27.9578 27.7827L28.0105 27.0345L27.9578 27.7827ZM81.9722 1.74647C85.1465 2.05548 90.4156 3.39547 95.7743 6.16622C101.129 8.93503 106.517 13.1032 110.007 19.0326L111.3 18.2718C107.625 12.0273 101.984 7.68819 96.4633 4.83379C90.9466 1.98135 85.4939 0.582206 82.1175 0.253528L81.9722 1.74647ZM110.711 19.4C119.34 18.7418 132.39 20.207 143.463 26.7119C154.49 33.1898 163.602 44.6879 164.426 64.249L165.925 64.1859C165.079 44.0948 155.67 32.1436 144.223 25.4186C132.821 18.7206 119.446 17.2293 110.597 17.9044L110.711 19.4ZM165.798 63.7986C161.711 57.7291 148.548 47.1359 128.289 52.4485L128.67 53.8995C148.203 48.7773 160.756 58.9957 164.553 64.6364L165.798 63.7986ZM128.316 52.4421C121.636 53.9367 108.114 62.6895 105.647 85.5283L107.138 85.6894C109.541 63.4498 122.628 55.2518 128.643 53.9059L128.316 52.4421ZM106.393 84.8588H59.4361V86.3588H106.393V84.8588ZM60.1838 85.549C59.8319 81.1504 58.7095 74.1464 55.274 67.6078C51.8281 61.0495 46.0446 54.9467 36.4069 52.448L36.0305 53.9C45.1755 56.2709 50.6529 62.0377 53.9461 68.3055C57.2497 74.593 58.3448 81.3716 58.6885 85.6686L60.1838 85.549ZM36.4069 52.448C32.4023 51.4098 25.899 50.7331 19.3267 52.0606C12.7414 53.3907 6.02807 56.7485 1.75061 63.8297L3.03454 64.6053C7.03536 57.9821 13.322 54.8037 19.6237 53.5309C25.9384 52.2555 32.2091 52.9093 36.0305 53.9L36.4069 52.448ZM3.14258 64.2175V49.6088H1.64258V64.2175H3.14258ZM3.13882 49.6837C3.44506 46.6353 5.0935 40.9937 8.95053 36.2955C12.7788 31.6323 18.7842 27.889 27.9052 28.5308L28.0105 27.0345C18.3488 26.3546 11.8905 30.3504 7.79117 35.3437C3.72064 40.302 1.97778 46.2344 1.64633 49.5338L3.13882 49.6837ZM27.9052 28.5308C39.4937 29.3463 50.3424 33.8785 59.6281 38.4237C61.9476 39.559 64.1647 40.6926 66.2717 41.7684C68.3762 42.8429 70.3735 43.861 72.2417 44.7589C75.9561 46.5442 79.2484 47.8995 81.9441 48.265L82.1456 46.7786C79.7109 46.4485 76.6118 45.1951 72.8915 43.407C71.0423 42.5182 69.0613 41.5085 66.9538 40.4325C64.8489 39.3578 62.6204 38.2183 60.2876 37.0764C50.9646 32.513 39.9002 27.8712 28.0105 27.0345L27.9052 28.5308ZM81.9441 48.265C87.2508 48.9846 93.9598 47.8385 99.6809 43.3625C105.416 38.876 110.078 31.1075 111.399 18.7318L109.908 18.5726C108.62 30.6317 104.109 37.9937 98.7567 42.1811C93.3908 46.3791 87.0998 47.4504 82.1456 46.7786L81.9441 48.265Z" fill="#B7746D"></path><path d="M51.4349 85.7825C51.4349 99.7097 40.1446 111 26.2174 111C12.2902 111 1 99.7097 1 85.7825C1 71.8553 12.2902 60.5651 26.2174 60.5651C40.1446 60.5651 51.4349 71.8553 51.4349 85.7825Z" stroke="#B7746D" stroke-width="1.5"></path><path d="M165.174 85.6086C165.174 99.5358 153.884 110.826 139.957 110.826C126.03 110.826 114.739 99.5358 114.739 85.6086C114.739 71.6814 126.03 60.3912 139.957 60.3912C153.884 60.3912 165.174 71.6814 165.174 85.6086Z" stroke="#B7746D" stroke-width="1.5"></path><path d="M37.5228 85.7828C37.5228 92.0261 32.4617 97.0872 26.2184 97.0872C19.9752 97.0872 14.9141 92.0261 14.9141 85.7828C14.9141 79.5396 19.9752 74.4785 26.2184 74.4785C32.4617 74.4785 37.5228 79.5396 37.5228 85.7828Z" stroke="#B7746D" stroke-width="0.8"></path><path d="M151.262 85.6089C151.262 91.8522 146.201 96.9133 139.958 96.9133C133.715 96.9133 128.653 91.8522 128.653 85.6089C128.653 79.3657 133.715 74.3046 139.958 74.3046C146.201 74.3046 151.262 79.3657 151.262 85.6089Z" stroke="#B7746D" stroke-width="0.8"></path></svg>