<svg xmlns="http://www.w3.org/2000/svg" width="88" height="112" viewBox="0 0 88 112" fill="none"><path d="M14.6708 69.3823C17.1383 67.5516 23.7807 65.1199 30.6101 70.039C39.1469 76.1879 44.9973 85.9186 43.684 96.9627C42.3706 108.007 35.9829 111.947 24.9389 110.813M24.9389 110.813C28.0829 107.967 32.6996 99.7566 26.0134 89.6796C17.6557 77.0833 11.0293 74.4566 12.3426 55.2936C12.5933 51.6367 12.9156 48.1297 13.3629 44.7868M24.9389 110.813L18.0139 110.407M70.4285 61.9798C64.2996 61.1241 50.7999 63.3648 45.8331 79.1727C44.1814 83.6302 42.6094 94.0494 49.5343 100.067C54.2168 104.136 60.4189 104.327 65.7124 102.085M70.4285 61.9798C75.7892 64.9918 78.4627 69.0347 79.4901 73.2627M70.4285 61.9798C72.8051 39.5173 69.1362 25.4745 65.7432 18.7586M1.41792 85.6201C5.21867 83.0332 14.5992 80.8204 21.7152 92.6644C23.4663 96.107 25.7388 104.306 20.8197 109.559C20.1167 109.918 19.149 110.246 18.0139 110.407M1.41792 85.6201C1.41792 91.172 0.104566 95.1121 6.37283 104.425C10.0943 109.954 14.7473 110.871 18.0139 110.407M1.41792 85.6201C1.81591 81.8193 2.37311 71.7702 1.41792 61.9798C0.998577 57.6817 0.579242 50.3571 1.84868 42.2198M82.5472 73.2627C85.2216 53.4908 83.6615 35.4939 82.5472 28.9669C81.7056 25.1072 79.8324 20.2267 76.6968 15.6273M82.5472 73.2627C84.8953 76.4465 88.8481 83.1128 84.6366 90.8138C82.5472 94.6345 76.3147 102.888 65.7124 102.085M82.5472 73.2627H79.4901M65.7124 102.085C70.2047 100.183 74.0202 94.7539 75.7416 92.0078C78.3517 87.8441 81.1994 80.2972 79.4901 73.2627M1.84868 42.2198C4.19372 27.1879 12.3017 9.38265 36.8187 2.75959C40.0149 1.89615 43.0169 1.37256 45.8331 1.14094M1.84868 42.2198C2.66387 43.9312 6.10796 46.8404 13.3629 44.7868M13.3629 44.7868C14.7555 34.3774 17.3588 25.5593 22.7763 18.7586M65.7432 18.7586C64.9089 17.1071 64.0912 15.8986 63.3842 15.117C55.4086 4.32369 37.6943 8.66968 29.8341 12.1919C27.0628 14.1035 24.7355 16.2991 22.7763 18.7586M65.7432 18.7586C68.4633 19.4371 74.4621 19.7607 76.6968 15.6273M76.6968 15.6273C71.0136 7.29115 61.1835 -0.121557 45.8331 1.14094M22.7763 18.7586C25.8055 13.8588 34.6577 3.47564 45.8331 1.14094" stroke="#B7746D" stroke-width="1.5" stroke-linecap="round"></path><ellipse cx="12.4071" cy="95.9452" rx="5.04578" ry="7.5392" transform="rotate(-34.3999 12.4071 95.9452)" fill="#B7746D"></ellipse><path d="M64.3526 84.0986C63.2548 86.6995 61.6022 88.7379 59.8552 89.9449C58.0994 91.1579 56.347 91.4761 54.939 90.8818C53.5311 90.2875 52.5367 88.8098 52.1811 86.7056C51.8273 84.6119 52.1352 82.0059 53.233 79.405C54.3309 76.8042 55.9834 74.7658 57.7304 73.5588C59.4862 72.3458 61.2386 72.0276 62.6466 72.6219C64.0545 73.2162 65.0489 74.6939 65.4045 76.798C65.7583 78.8918 65.4504 81.4978 64.3526 84.0986Z" stroke="#B7746D" stroke-width="1.5"></path></svg>